<?xml version="1.0" encoding="UTF-8" standalone="no"?>
<svg
   viewBox="0 0 250 250"
   version="1.1"
   id="svg216"
   sodipodi:docname="card.svg"
   width="250"
   height="250"
   inkscape:version="1.1.2 (0a00cf5339, 2022-02-04)"
   xmlns:inkscape="http://www.inkscape.org/namespaces/inkscape"
   xmlns:sodipodi="http://sodipodi.sourceforge.net/DTD/sodipodi-0.dtd"
   xmlns="http://www.w3.org/2000/svg"
   xmlns:svg="http://www.w3.org/2000/svg">
  <defs
     id="defs220" />
  <sodipodi:namedview
     id="namedview218"
     pagecolor="#ffffff"
     bordercolor="#666666"
     borderopacity="1.0"
     inkscape:pageshadow="2"
     inkscape:pageopacity="0.0"
     inkscape:pagecheckerboard="0"
     showgrid="false"
     inkscape:zoom="1.288"
     inkscape:cx="219.3323"
     inkscape:cy="207.29814"
     inkscape:window-width="1920"
     inkscape:window-height="1007"
     inkscape:window-x="0"
     inkscape:window-y="0"
     inkscape:window-maximized="1"
     inkscape:current-layer="svg216" />
  <g
     id="freepik--background-simple--inject-44"
     transform="matrix(0.56937366,0,0,0.58170859,-17.343154,-24.659523)">
    <path
       d="M 456.55,209.11 C 407.81,125.63 275.6,155.36 248.6,114.76 234.77,94 219.3,69.87 196.86,57.34 175.47,45.34 150.67,41.13 129.05,42.71 51.84,48.36 19.11,117.44 33.94,193.3 53.74,294.49 143.44,397.86 250,398.58 305.74,399 359,379 400.7,350.87 l 0.93,-0.63 c 41.7,-28.39 92.14,-77.4 54.92,-141.13 z"
       style="fill:#92e3a9"
       id="path2" />
    <path
       d="M 456.55,209.11 C 407.81,125.63 275.6,155.36 248.6,114.76 234.77,94 219.3,69.87 196.86,57.34 175.47,45.34 150.67,41.13 129.05,42.71 51.84,48.36 19.11,117.44 33.94,193.3 53.74,294.49 143.44,397.86 250,398.58 305.74,399 359,379 400.7,350.87 l 0.93,-0.63 c 41.7,-28.39 92.14,-77.4 54.92,-141.13 z"
       style="opacity:0.7;fill:#ffffff"
       id="path4" />
  </g>
  <g
     id="freepik--Lines--inject-44"
     transform="matrix(0.56937366,0,0,0.58170859,-17.343154,-24.659523)">
    <path
       d="m 78.19,215.18 h -5.42 a 21.93,21.93 0 0 0 -21.93,21.93 v 120.34 a 21.93,21.93 0 0 0 21.93,21.93 h 74.36 a 21.93,21.93 0 0 0 21.93,-21.93 v 0"
       style="fill:none;stroke:#263238;stroke-width:1.10311px;stroke-linecap:round;stroke-linejoin:round;stroke-dasharray:4.41242"
       id="path7" />
    <path
       d="M 163,101.63 V 77.86 a 13.43,13.43 0 0 1 13.4,-13.43 h 96.7 a 13.43,13.43 0 0 1 13.43,13.43 v 0"
       style="fill:none;stroke:#263238;stroke-width:1.10311px;stroke-linecap:round;stroke-linejoin:round;stroke-dasharray:4.41242"
       id="path9" />
  </g>
  <g
     id="freepik--Shadow--inject-44"
     transform="matrix(0.56937366,0,0,0.58170859,-17.343154,-24.659523)">
    <ellipse
       cx="250"
       cy="445.39999"
       rx="191.52"
       ry="26.76"
       style="fill:#92e3a9"
       id="ellipse12" />
    <ellipse
       cx="250"
       cy="445.39999"
       rx="191.52"
       ry="26.76"
       style="opacity:0.5;fill:#ffffff"
       id="ellipse14" />
  </g>
  <g
     id="freepik--Window--inject-44"
     transform="matrix(0.56937366,0,0,0.58170859,-17.343154,-24.659523)">
    <path
       d="m 430.54,133.52 v 180.06 a 22.2,22.2 0 0 1 -22.19,22.2 H 91.65 A 22.2,22.2 0 0 1 69.46,313.58 V 133.52 c 0,-0.53 0,-1 0.07,-1.56 a 22.18,22.18 0 0 1 22.12,-20.64 h 316.7 A 22.18,22.18 0 0 1 430.47,132 c 0.05,0.48 0.07,1 0.07,1.52 z"
       style="fill:#ffffff;stroke:#263238;stroke-width:1.10311px;stroke-linecap:round;stroke-linejoin:round"
       id="path17" />
    <path
       d="m 80.26,140.28 h 340.61 v 166.33 a 20.8,20.8 0 0 1 -20.8,20.8 h -299 a 20.8,20.8 0 0 1 -20.8,-20.8 V 140.28 Z"
       style="fill:#263238"
       id="path19" />
    <path
       d="m 420.88,140.28 v 166.33 a 20.69,20.69 0 0 1 -20.57,20.8 H 100.83 A 20.69,20.69 0 0 1 80.26,306.61 V 140.28 Z"
       style="opacity:0.2;fill:#ffffff"
       id="path21" />
    <path
       d="M 430.47,132 H 69.53 a 22.18,22.18 0 0 1 22.12,-20.64 h 316.7 A 22.18,22.18 0 0 1 430.47,132 Z"
       style="fill:#92e3a9;stroke:#263238;stroke-width:1.10311px;stroke-miterlimit:10"
       id="path23" />
    <path
       d="m 113.88,121.64 a 3.93,3.93 0 1 1 -3.93,-3.93 3.93,3.93 0 0 1 3.93,3.93 z"
       style="fill:#263238"
       id="path25" />
    <path
       d="m 130.5,121.64 a 3.93,3.93 0 1 1 -3.93,-3.93 3.93,3.93 0 0 1 3.93,3.93 z"
       style="fill:#263238"
       id="path27" />
    <circle
       cx="143.19"
       cy="121.64"
       r="3.9300001"
       style="fill:#263238"
       id="circle29" />
    <path
       d="m 420.87,140.28 v 166.33 a 20.8,20.8 0 0 1 -20.8,20.8 h -299 a 20.8,20.8 0 0 1 -20.4,-16.76 v -0.06 a 21,21 0 0 1 -0.38,-4 V 140.28 Z"
       style="fill:none;stroke:#263238;stroke-width:1.10311px;stroke-miterlimit:10"
       id="path31" />
    <path
       d="m 420.55,166 a 20.94,20.94 0 0 0 -4.62,-1.91 l -1.87,-8.35 h -7.94 l -1.85,8.35 a 20.25,20.25 0 0 0 -4.64,1.91 l -7.17,-4.59 -5.61,5.59 4.51,7.17 a 20.35,20.35 0 0 0 -1.91,4.64 l -8.35,1.85 v 7.94 l 8.35,1.87 a 20,20 0 0 0 1.91,4.66 l -4.59,7.22 5.62,5.61 7.21,-4.59 a 20.39,20.39 0 0 0 4.63,1.92 l 1.86,8.34 H 414 l 1.86,-8.34 a 20.78,20.78 0 0 0 4.62,-1.92 l 0.37,0.24 V 165.8 Z m -10.44,29 A 10.26,10.26 0 1 1 420.37,184.75 10.25,10.25 0 0 1 410.11,195 Z"
       style="fill:#263238"
       id="path33" />
    <path
       d="m 277.45,174.05 v -16.74 l -17.6,-3.91 a 45.51,45.51 0 0 0 -4,-9.77 l 2.13,-3.35 h -83.1 l 2.05,3.26 a 43,43 0 0 0 -4,9.76 l -17.61,3.92 V 174 l 17.61,3.93 a 43.65,43.65 0 0 0 4,9.84 l -9.67,15.21 11.85,11.84 15.2,-9.68 a 44.38,44.38 0 0 0 9.77,4.05 l 3.92,17.55 h 16.7 l 3.94,-17.59 a 44.64,44.64 0 0 0 9.74,-4.05 l 15.21,9.68 11.84,-11.84 -9.61,-15.21 a 45.87,45.87 0 0 0 4,-9.75 z m -61,13.26 a 21.63,21.63 0 1 1 21.63,-21.63 21.62,21.62 0 0 1 -21.63,21.63 z"
       style="fill:#263238"
       id="path35" />
    <path
       d="m 166.38,289 0.71,-13.29 -13.77,-3.88 a 37.21,37.21 0 0 0 -2.82,-7.9 l 8.32,-11.68 -8.92,-9.89 -12.46,7 a 36.51,36.51 0 0 0 -7.59,-3.63 l -2.38,-14.12 -13.28,-0.61 -3.84,13.81 a 35,35 0 0 0 -7.9,2.8 l -11.67,-8.31 -9.91,8.91 7.06,12.47 a 35,35 0 0 0 -3.64,7.58 l -4,0.66 v 18 l 2.92,0.82 a 34.6,34.6 0 0 0 2.79,7.91 l -5.74,8.05 0.38,6.89 v 0.06 l 5.93,6.57 12.48,-7.05 a 34.66,34.66 0 0 0 7.61,3.67 L 109,327.4 v 0 l 0.11,0.57 13.28,0.7 0.35,-1.27 v 0 l 3.49,-12.53 a 35.53,35.53 0 0 0 7.94,-2.8 l 11.65,8.3 9.9,-8.9 -7,-12.48 a 34.53,34.53 0 0 0 3.59,-7.57 z m -35.27,-20.75 a 17.2,17.2 0 1 0 -1.28,24.28 17.2,17.2 0 0 0 1.28,-24.24 z"
       style="fill:#263238"
       id="path37" />
    <path
       d="m 272.6,269.19 a 27.25,27.25 0 0 0 0.81,-6.29 l 9.55,-5 -2.64,-9.69 -10.78,0.5 a 27.27,27.27 0 0 0 -3.87,-5 l 3.19,-10.31 -8.7,-5 -7.28,7.94 a 28.8,28.8 0 0 0 -6.27,-0.8 l -5,-9.55 -9.68,2.63 0.51,10.79 a 27.24,27.24 0 0 0 -5,3.87 l -10.32,-3.19 -5,8.69 8,7.27 a 26,26 0 0 0 -0.79,6.27 l -9.57,5 2.64,9.68 10.8,-0.51 a 25.39,25.39 0 0 0 3.85,5 l -3.21,10.26 8.71,5 7.24,-7.88 a 26.12,26.12 0 0 0 6.29,0.79 l 5,9.56 9.68,-2.63 -0.43,-9.22 -0.07,-1.58 a 26.41,26.41 0 0 0 5.06,-3.87 l 10.31,3.2 4.26,-7.44 0.72,-1.26 z m -22.87,5.88 a 13,13 0 1 1 9.1,-15.9 13,13 0 0 1 -9.1,15.9 z"
       style="fill:#263238"
       id="path39" />
    <path
       d="m 383.32,286.23 2.2,-13.3 -13.46,-5.41 a 35.27,35.27 0 0 0 -1.93,-8.3 l 9.69,-10.79 -7.84,-11 -13.36,5.67 a 35.38,35.38 0 0 0 -7.22,-4.48 l -0.78,-14.49 -13.3,-2.2 -5.45,13.4 a 37.15,37.15 0 0 0 -8.27,1.95 l -10.82,-9.69 -10.95,7.84 5.68,13.35 a 36.24,36.24 0 0 0 -4.05,6.29 c -0.15,0.31 -0.31,0.62 -0.45,0.93 l -14.48,0.8 -2.21,13.28 2.18,0.88 11.28,4.55 a 35.18,35.18 0 0 0 1.93,8.26 l -9.71,10.86 7.85,11 13.35,-5.7 a 35.06,35.06 0 0 0 7.21,4.52 l 0.75,14.42 13.29,2.2 5.44,-13.3 a 35.13,35.13 0 0 0 8.28,-1.94 l 10.8,9.69 11,-7.85 -5.68,-13.36 a 34.78,34.78 0 0 0 4.55,-7.25 z m -37.3,-0.6 a 17.41,17.41 0 1 1 4,-24.29 17.41,17.41 0 0 1 -4.02,24.29 z"
       style="fill:#263238"
       id="path41" />
  </g>
  <g
     id="freepik--Graphics--inject-44"
     transform="matrix(0.56937366,0,0,0.58170859,-17.343154,-24.659523)">
    <rect
       x="85.389999"
       y="187.77"
       width="130.8"
       height="171.00999"
       rx="13.11"
       style="fill:#92e3a9;stroke:#263238;stroke-width:1.10311px;stroke-miterlimit:10"
       id="rect44" />
    <rect
       x="85.389999"
       y="187.77"
       width="130.8"
       height="171.00999"
       rx="13.11"
       style="opacity:0.2"
       id="rect46" />
    <path
       d="m 228.36,213.8 v 144.79 a 13.11,13.11 0 0 1 -13.11,13.12 H 110.67 A 13.11,13.11 0 0 1 97.57,358.59 V 213.8 a 13.11,13.11 0 0 1 13.1,-13.11 h 104.58 a 13.11,13.11 0 0 1 13.11,13.11 z"
       style="fill:#ffffff;stroke:#263238;stroke-width:1.10311px;stroke-linecap:round;stroke-linejoin:round"
       id="path48" />
    <path
       d="m 228.36,213.8 v 7.75 H 97.57 v -7.75 a 13.11,13.11 0 0 1 13.1,-13.11 h 104.58 a 13.11,13.11 0 0 1 13.11,13.11 z"
       style="fill:#92e3a9;stroke:#263238;stroke-width:1.10311px;stroke-miterlimit:10"
       id="path50" />
    <rect
       x="109.87"
       y="230.53"
       width="32.18"
       height="5.4000001"
       style="fill:#92e3a9"
       id="rect52" />
    <rect
       x="109.87"
       y="278.92001"
       width="32.18"
       height="5.4000001"
       style="fill:#92e3a9"
       id="rect54" />
    <rect
       x="109.87"
       y="322.79999"
       width="32.18"
       height="5.4000001"
       style="fill:#92e3a9"
       id="rect56" />
    <rect
       x="109.87"
       y="243.89999"
       width="91.389999"
       height="3.96"
       style="fill:#263238"
       id="rect58" />
    <rect
       x="109.87"
       y="251.47"
       width="74.910004"
       height="3.8599999"
       style="fill:#263238"
       id="rect60" />
    <rect
       x="109.87"
       y="258.92001"
       width="84.720001"
       height="3.8599999"
       style="fill:#263238"
       id="rect62" />
    <rect
       x="109.87"
       y="266.35999"
       width="84.720001"
       height="3.8599999"
       style="fill:#263238"
       id="rect64" />
    <rect
       x="109.87"
       y="287.78"
       width="91.389999"
       height="3.96"
       style="fill:#263238"
       id="rect66" />
    <rect
       x="109.87"
       y="295.35001"
       width="74.910004"
       height="3.8599999"
       style="fill:#263238"
       id="rect68" />
    <rect
       x="109.87"
       y="302.79999"
       width="84.720001"
       height="3.8599999"
       style="fill:#263238"
       id="rect70" />
    <rect
       x="109.87"
       y="335.95999"
       width="91.389999"
       height="3.96"
       style="fill:#263238"
       id="rect72" />
    <rect
       x="109.87"
       y="343.54001"
       width="74.910004"
       height="3.8599999"
       style="fill:#263238"
       id="rect74" />
    <rect
       x="109.87"
       y="350.98999"
       width="84.720001"
       height="3.8599999"
       style="fill:#263238"
       id="rect76" />
    <path
       d="m 375.77,100.29 v 58.52 a 15.63,15.63 0 0 1 -15.64,15.63 H 225.35 a 15.63,15.63 0 0 1 -15.64,-15.63 v -58.52 a 15.65,15.65 0 0 1 15.64,-15.64 h 134.78 a 15.64,15.64 0 0 1 15.64,15.64 z"
       style="fill:#ffffff;stroke:#222221;stroke-width:1.10311px;stroke-miterlimit:10"
       id="path78" />
    <path
       d="m 375.77,100.29 v 1.34 H 209.71 v -1.34 a 15.65,15.65 0 0 1 15.64,-15.64 h 134.78 a 15.64,15.64 0 0 1 15.64,15.64 z"
       style="fill:#92e3a9;stroke:#263238;stroke-width:1.10311px;stroke-miterlimit:10"
       id="path80" />
    <path
       d="m 234.11,95.94 a 2.4,2.4 0 1 1 0,-3.39 2.41,2.41 0 0 1 0,3.39 z"
       style="fill:#263238"
       id="path82" />
    <path
       d="m 245.23,95.94 a 2.4,2.4 0 1 1 0,-3.39 2.41,2.41 0 0 1 0,3.39 z"
       style="fill:#263238"
       id="path84" />
    <path
       d="m 256.35,95.94 a 2.4,2.4 0 1 1 0,-3.39 2.41,2.41 0 0 1 0,3.39 z"
       style="fill:#263238"
       id="path86" />
    <rect
       x="220.3"
       y="112.39"
       width="54.279999"
       height="46.919998"
       style="fill:none;stroke:#263238;stroke-width:1.10311px;stroke-linecap:round;stroke-linejoin:round;stroke-dasharray:4.41242"
       id="rect88" />
    <rect
       x="282.95999"
       y="112.39"
       width="62.470001"
       height="3.3"
       style="fill:#263238"
       id="rect90" />
    <rect
       x="282.95999"
       y="119.22"
       width="47.919998"
       height="3.29"
       style="fill:#263238"
       id="rect92" />
    <rect
       x="282.95999"
       y="126.02"
       width="71.349998"
       height="3.3299999"
       style="fill:#263238"
       id="rect94" />
    <rect
       x="282.95999"
       y="132.64999"
       width="60.759998"
       height="3.3299999"
       style="fill:#263238"
       id="rect96" />
    <rect
       x="343.23001"
       y="245.53"
       width="43.610001"
       height="30.99"
       rx="6.5300002"
       style="fill:#ffffff;stroke:#263238;stroke-width:1.10311px;stroke-linecap:round;stroke-linejoin:round"
       id="rect98" />
    <polyline
       points="357.3 254.85 348.91 260.11 356.7 267.01"
       style="fill:none;stroke:#263238;stroke-width:1.10311px;stroke-linecap:round;stroke-linejoin:round"
       id="polyline100" />
    <polyline
       points="372.58 267.51 380.12 261.09 371.42 255.39"
       style="fill:none;stroke:#263238;stroke-width:1.10311px;stroke-linecap:round;stroke-linejoin:round"
       id="polyline102" />
    <line
       x1="361.38"
       y1="271.47"
       x2="367.57001"
       y2="252.05"
       style="fill:none;stroke:#263238;stroke-width:1.10311px;stroke-linecap:round;stroke-linejoin:round"
       id="line104" />
  </g>
  <g
     id="freepik--Character--inject-44"
     transform="matrix(0.56937366,0,0,0.58170859,-17.343154,-24.659523)">
    <path
       d="m 296.86,440.47 c 0,0 -29,8.31 -33.05,9.75 -3.68,1.3 -13.66,4.8 -21.15,3.71 a 15.89,15.89 0 0 1 -2.14,-0.46 c -7.59,-2.26 -11,-4.37 -12,-9.14 -1,-4.77 2.78,-8.29 6.42,-10.54 3.64,-2.25 23.38,-4.6 23.38,-4.6 l 4.77,1.4 v 0 z"
       style="fill:#92e3a9"
       id="path107" />
    <path
       d="m 242.66,453.93 a 15.89,15.89 0 0 1 -2.14,-0.46 c -7.59,-2.26 -11,-4.37 -12,-9.14 -1,-4.77 2.78,-8.29 6.42,-10.54 3.64,-2.25 23.38,-4.6 23.38,-4.6 l 4.77,1.4 c -4.32,2 -20.4,3.09 -23.91,5.11 -3.51,2.02 -5.2,5.82 -3.13,11 1.11,2.7 4.07,5.35 6.61,7.23 z"
       style="fill:#ffffff"
       id="path109" />
    <path
       d="m 292.5,441.65 c 0,0 -21.78,5.64 -30.42,9.25 -8.64,3.61 -25.11,5.19 -31,-2.25 -5.89,-7.44 -0.68,-13.86 5.19,-15.29 5.87,-1.43 17.74,-3.68 24.22,-2.77"
       style="fill:none;stroke:#263238;stroke-width:1.10311px;stroke-linecap:round;stroke-linejoin:round"
       id="path111" />
    <path
       d="m 243.09,453.54 c 0,0 -11.08,-6.08 -7.4,-14.6 2.72,-6.28 17.5,-4.92 24.82,-8.35"
       style="fill:none;stroke:#263238;stroke-width:1.10311px;stroke-linecap:round;stroke-linejoin:round"
       id="path113" />
    <path
       d="m 385.19,455.28 c -0.3,3 -1.35,5.81 -4.35,7.58 -2,1.18 -4.84,1.88 -8.91,1.84 -10.17,-0.13 -29.29,-7.4 -29.29,-7.4 l -17.9,-9.9 9.31,-14.73 2.55,-4 6.58,1.48 c 0,0 5.45,3.09 10.93,5.55 5.48,2.46 18.79,3 23.48,6.77 4.69,3.77 8.11,7.87 7.6,12.81 z"
       style="fill:#92e3a9"
       id="path115" />
    <path
       d="m 385.19,455.28 c -0.3,3 -1.35,5.81 -4.35,7.58 a 13.39,13.39 0 0 0 -0.5,-8.94 c -2,-4.49 -8.51,-8.45 -17.07,-9.11 -8.56,-0.66 -15.11,-4.66 -18.54,-6.45 -2.68,-1.39 -8.33,-4.43 -10.68,-5.69 l 2.55,-4 6.58,1.48 c 0,0 5.45,3.09 10.93,5.55 5.48,2.46 18.79,3 23.48,6.77 4.69,3.77 8.11,7.87 7.6,12.81 z"
       style="fill:#ffffff"
       id="path117" />
    <path
       d="m 328.71,450.18 a 112.86,112.86 0 0 0 41.9,14.31 c 3.26,0.39 7.05,0.45 9.23,-2 a 6.82,6.82 0 0 0 1.5,-5.11 c -0.39,-4.6 -4.26,-8.24 -8.5,-10.07 -4.24,-1.83 -8.91,-2.25 -13.42,-3.26 a 53.38,53.38 0 0 1 -12.9,-4.72 c -3.24,-1.69 -6.37,-3.74 -9.94,-4.5 -3.57,-0.76 -7.82,0.16 -9.73,3.28"
       style="fill:none;stroke:#263238;stroke-width:1.10311px;stroke-linecap:round;stroke-linejoin:round"
       id="path119" />
    <path
       d="m 378.64,463.74 a 11.92,11.92 0 0 0 6.55,-8.46 c 0.65,-4.33 -1.82,-8.69 -5.29,-11.35 -3.47,-2.66 -7.82,-3.92 -12.11,-4.81 -4.29,-0.89 -8.68,-1.49 -12.79,-3.12 -6.27,-2.46 -12.46,-7.3 -19,-5.57"
       style="fill:none;stroke:#263238;stroke-width:1.10311px;stroke-linecap:round;stroke-linejoin:round"
       id="path121" />
    <path
       d="m 348.91,295.26 -30.29,-11.52 -0.38,-0.15 c 0,0 0.11,-0.8 0.2,-2 0.19,-2.42 0.29,-6.36 -0.85,-7.69 -1.69,-2 -6.47,-0.32 -11.14,-2.46 -4.67,-2.14 -13.3,1.69 -13.3,1.69 0,0 -6.24,-1.15 -9,3.35 -1.4,3.63 -0.92,9 -0.92,9 l -0.57,0.2 c -3.61,1.35 -23.25,8.74 -27.4,11.71 -4.59,3.25 -9.67,36.62 -11.3,46.42 -1.63,9.8 -4.53,18.63 -3.06,22 1.47,3.37 22.57,19.62 34.71,23.81 12.14,4.19 55.19,3 55.19,3 0,0 0.7,-0.19 1.95,-0.59 7.28,-2.34 33.11,-12 46.82,-34.68 0.02,0.04 -13.26,-43.49 -30.66,-62.09 z m -81.84,56.13 c -2.23,1.58 -1,7.7 -1,7.7 l -3.79,-3.34 9.52,-23.41 4.06,18 c 0,0 -6.56,-0.52 -8.79,1.05 z m 76.16,14.87 c -1.05,0.54 3,-10.71 1.08,-13.26 -1.92,-2.55 -7.71,-2.31 -7.71,-2.31 l 0.49,-3.07 3.43,-17.6 1.14,-1.35 c 0,0 11.78,20.19 13.89,27.31 0,0.02 -12.84,10.28 -12.32,10.28 z"
       style="fill:#92e3a9"
       id="path123" />
    <path
       d="m 291.72,222.25 -15.64,16.6 c 0,0 -2.15,1.91 -1.3,6.72 0.85,4.81 2.85,9 4.36,9.28 a 21.37,21.37 0 0 0 3.62,0.32 c 0,0 3.35,7.26 5.73,10.11 0,0 0.82,11.21 0.38,14.32 0,0 5.62,4.91 10.91,5.53 5.29,0.62 13.46,-7.48 13.46,-7.48 l 2,-9.92 c 0,0 4.8,-7.28 5.12,-9.22 0.32,-1.94 2.52,-1.44 3.6,-2.4 1.08,-0.96 3.57,-5.23 4,-9.27 0.43,-4.04 0.44,-8.68 -4.25,-7.32 -4.07,-1.09 -1.52,-9.69 -1.52,-9.69 l -7.15,-6.3 z"
       style="fill:#ffffff"
       id="path125" />
    <path
       d="m 318.62,283.74 a 17.67,17.67 0 0 1 -0.81,1.81 c -2.58,4.86 -13.82,14.13 -13.82,14.13 l -3.4,-10.45 -1.86,10.45 c -3.75,-1.64 -15.19,-11.55 -15.19,-11.55 0,0 -0.39,-0.93 -0.86,-2.38 l 0.57,-0.2 c 0,0 -0.48,-5.41 0.92,-9 2.74,-4.5 9,-3.35 9,-3.35 0,0 8.63,-3.83 13.3,-1.69 4.67,2.14 9.45,0.48 11.14,2.46 1.69,1.98 0.65,9.66 0.65,9.66 z"
       style="opacity:0.5;fill:#ffffff"
       id="path127" />
    <path
       d="m 348.91,295.26 -30.29,-11.52 -0.38,-0.15 c 0,0 0.11,-0.8 0.2,-2 l -0.63,3.93 -4.48,6.08 a 124,124 0 0 1 14,6.16 12.28,12.28 0 0 1 6.4,12.24 l -5.58,47.75 -2.29,27.11 6.91,7.17 c 7.28,-2.34 33.11,-12 46.82,-34.68 0,0.04 -13.28,-43.49 -30.68,-62.09 z m -5.68,71 c -1.05,0.54 3,-10.71 1.08,-13.26 -1.92,-2.55 -7.71,-2.31 -7.71,-2.31 l 0.49,-3.07 3.43,-17.6 1.14,-1.35 c 0,0 11.78,20.19 13.89,27.31 0,0.02 -12.84,10.28 -12.32,10.28 z"
       style="opacity:0.2"
       id="path129" />
    <path
       d="m 277.87,353 -4.71,-15.74 c 0,0 -8.45,-28.81 -14.24,-35.91 l 1.52,20.26 c 0,0 -5,24.2 -9.57,31.39 -4.57,7.19 -5.59,9 0,9 5.59,0 19.2,10.84 19.2,10.84 l -1.05,-9 z m -11.87,6.09 -3.79,-3.34 9.52,-23.41 4.06,18 c 0,0 -6.52,-0.49 -8.75,1.08 -2.23,1.57 -1.04,7.67 -1.04,7.67 z"
       style="opacity:0.2"
       id="path131" />
    <path
       d="m 288.49,265.28 c 0,0 0.86,8.49 0,12.37"
       style="fill:none;stroke:#263238;stroke-width:1.10311px;stroke-linecap:round;stroke-linejoin:round"
       id="path133" />
    <path
       d="m 314.11,276.51 a 36.53,36.53 0 0 1 0.94,-8.11"
       style="fill:none;stroke:#263238;stroke-width:1.10311px;stroke-linecap:round;stroke-linejoin:round"
       id="path135" />
    <path
       d="m 316.38,228.58 c 0,0 5.14,6.45 4.87,11.33 -0.27,4.88 -0.65,10.66 -0.52,16.32 0.13,5.66 -9.09,17.52 -13.83,18.57 -4.74,1.05 -8.82,1.32 -11.85,-1.71 -3.03,-3.03 -6.06,-7.24 -10,-12.64 -3.94,-5.4 -3,-17.25 -3,-17.25"
       style="fill:none;stroke:#263238;stroke-width:1.10311px;stroke-linecap:round;stroke-linejoin:round"
       id="path137" />
    <path
       d="m 304,247.71 a 26.82,26.82 0 0 0 -0.4,5.37 6.05,6.05 0 0 0 1.32,4.2 c 0.57,0.58 1.39,1.05 1.5,1.85 a 2,2 0 0 1 -1.06,1.75 15.55,15.55 0 0 0 -1.85,1.1"
       style="fill:none;stroke:#263238;stroke-width:1.10311px;stroke-linecap:round;stroke-linejoin:round"
       id="path139" />
    <path
       d="m 295.87,262.6 c 0,0 0.59,3.83 5.72,4.63"
       style="fill:none;stroke:#263238;stroke-width:1.10311px;stroke-linecap:round;stroke-linejoin:round"
       id="path141" />
    <path
       d="m 296.4,250.63 c 0,1.11 -0.48,2 -1.07,2 -0.59,0 -1.07,-0.89 -1.07,-2 0,-1.11 0.48,-2 1.07,-2 0.59,0 1.07,0.9 1.07,2 z"
       style="fill:#263238"
       id="path143" />
    <path
       d="m 311.71,251.11 c 0,1.11 -0.48,2 -1.07,2 -0.59,0 -1.07,-0.9 -1.07,-2 0,-1.1 0.48,-2 1.07,-2 0.59,0 1.07,0.89 1.07,2 z"
       style="fill:#263238"
       id="path145" />
    <path
       d="m 308.62,246.26 c 0,0 5,-5 9.19,0.58"
       style="fill:none;stroke:#263238;stroke-width:2.20621px;stroke-linecap:round;stroke-linejoin:round"
       id="path147" />
    <path
       d="m 298.09,246.36 c 0,0 -3.16,-3.54 -8.14,0"
       style="fill:none;stroke:#263238;stroke-width:2.20621px;stroke-linecap:round;stroke-linejoin:round"
       id="path149" />
    <path
       d="m 288.87,270 c 0,0 3.05,8.4 9.86,10.79 6.81,2.39 15.85,-10 15.85,-10 l -0.47,-1.61 c 0,0 -5.93,7.7 -12.52,6.39 -6.59,-1.31 -13.1,-10.25 -13.1,-10.25 z"
       style="fill:#263238"
       id="path151" />
    <path
       d="m 282.76,254.85 c 0,0 -4.06,1.43 -5.14,-1.73 -1.08,-3.16 -4.78,-11.49 -1.54,-14.27 3.24,-2.78 5.84,3.67 5.84,3.67"
       style="fill:none;stroke:#263238;stroke-width:1.10311px;stroke-linecap:round;stroke-linejoin:round"
       id="path153" />
    <path
       d="m 320.72,256.57 c 0,0 3.77,0.76 4.85,-2.4 1.08,-3.16 4.78,-11.49 1.54,-14.27 -3.24,-2.78 -5.84,3.67 -5.84,3.67"
       style="fill:none;stroke:#263238;stroke-width:1.10311px;stroke-linecap:round;stroke-linejoin:round"
       id="path155" />
    <path
       d="m 281.92,250.63 a 5.62,5.62 0 0 0 3.56,-2.1 8.74,8.74 0 0 0 1,-3.19 37.59,37.59 0 0 0 0.56,-6.44 8.81,8.81 0 0 1 0.23,-2.51 6.6,6.6 0 0 1 1.36,-2.23 c 1.41,-1.66 3.12,-3.06 4.47,-4.78 a 8,8 0 0 0 2,-6 27.45,27.45 0 0 0 22.47,5.81 c 7.15,-1.4 14,-7.67 13.17,-15.55 a 6.37,6.37 0 0 0 -5,-5.48 c -3.53,-0.88 -6.7,1 -9.9,2.21 -5.83,2.2 -11.54,-1.58 -17.43,-2.21 -5,-0.55 -11.23,0.08 -13.85,5.09 0,0 -9,1.06 -13,8.5 -4,7.44 3.57,17.73 3.57,17.73 0,0 3,-3.68 6.93,3.76 z"
       style="fill:#263238"
       id="path157" />
    <path
       d="m 317,226.68 c 0,0 -2.34,12.2 3.77,18.11 0,0 1.34,-3.67 2.69,-4.57 a 14.13,14.13 0 0 0 -1.07,-13.54 c -4.52,-7.1 -5.39,0 -5.39,0 z"
       style="fill:#263238"
       id="path159" />
    <path
       d="m 328.14,212.8 a 11.49,11.49 0 0 1 -7,7.27 c -8.48,3.46 -16.71,-0.37 -25.21,-1.12 -6.93,-0.62 -14.58,5.64 -15.07,12.76"
       style="opacity:0.2;fill:none;stroke:#ffffff;stroke-width:1.10311px;stroke-linecap:round;stroke-linejoin:round"
       id="path161" />
    <path
       d="m 275.63,229.83 a 14.81,14.81 0 0 1 9,-13.08"
       style="opacity:0.2;fill:none;stroke:#ffffff;stroke-width:1.10311px;stroke-linecap:round;stroke-linejoin:round"
       id="path163" />
    <path
       d="m 286.53,276.51 a 38.71,38.71 0 0 0 13.21,9 c 0,0 10.15,-2.95 15.31,-10"
       style="fill:none;stroke:#263238;stroke-width:1.10311px;stroke-linecap:round;stroke-linejoin:round"
       id="path165" />
    <circle
       cx="293.14999"
       cy="250.63"
       r="8.9799995"
       transform="rotate(-24.64,293.10905,250.59989)"
       style="fill:none;stroke:#263238;stroke-width:1.10311px;stroke-linecap:round;stroke-linejoin:round"
       id="circle167" />
    <circle
       cx="313.22"
       cy="250.63"
       r="8.9799995"
       transform="rotate(-7,313.37761,250.72646)"
       style="fill:none;stroke:#263238;stroke-width:1.10311px;stroke-linecap:round;stroke-linejoin:round"
       id="circle169" />
    <path
       d="m 288.49,273.16 a 7,7 0 0 0 -4.33,3.35 c -1.59,2.8 -0.63,11.61 -0.63,11.61 0,0 8.21,8.12 15.2,11.55 l 2.06,-11.59 3.2,11.59 c 0,0 10.82,-7.65 13.82,-14.12 0,0 1,-7.55 0,-10 a 3.47,3.47 0 0 0 -3.23,-2.37"
       style="fill:none;stroke:#263238;stroke-width:1.10311px;stroke-linecap:round;stroke-linejoin:round"
       id="path171" />
    <path
       d="m 275.63,350.7 c 0,0 -3.21,-21.5 -7.48,-30.27"
       style="fill:none;stroke:#263238;stroke-width:1.10311px;stroke-linecap:round;stroke-linejoin:round"
       id="path173" />
    <path
       d="m 258.92,301.35 a 87,87 0 0 1 6.64,11.11"
       style="fill:none;stroke:#263238;stroke-width:1.10311px;stroke-linecap:round;stroke-linejoin:round"
       id="path175" />
    <path
       d="m 343.23,317.4 a 62.1,62.1 0 0 1 3.53,-10.49"
       style="fill:none;stroke:#263238;stroke-width:1.10311px;stroke-linecap:round;stroke-linejoin:round"
       id="path177" />
    <path
       d="m 336.6,350.7 c 0,0 2.31,-14.74 5.07,-26.88"
       style="fill:none;stroke:#263238;stroke-width:1.10311px;stroke-linecap:round;stroke-linejoin:round"
       id="path179" />
    <path
       d="m 340.52,330 a 17,17 0 0 1 8.94,-6.12"
       style="fill:none;stroke:#263238;stroke-width:1.10311px;stroke-linecap:round;stroke-linejoin:round"
       id="path181" />
    <path
       d="m 318.25,283.59 c 0,0 18.63,7.45 30.66,11.68 0,0 14.8,13.91 30.67,62.12 0,0 -14.54,24.46 -42.2,32.3"
       style="fill:none;stroke:#263238;stroke-width:1.10311px;stroke-linecap:round;stroke-linejoin:round"
       id="path183" />
    <path
       d="M 342.18,367.13 355.55,356 c 0,0 7.07,-5.37 14.42,-1.7"
       style="fill:none;stroke:#263238;stroke-width:1.10311px;stroke-linecap:round;stroke-linejoin:round"
       id="path185" />
    <path
       d="m 341.67,328.67 c 0,0 11.05,16.33 13.88,27.33"
       style="fill:none;stroke:#263238;stroke-width:1.10311px;stroke-linecap:round;stroke-linejoin:round"
       id="path187" />
    <path
       d="M 266.15,359.71 262.24,356 c 0,0 -5.8,-1 -12.38,3.39"
       style="fill:none;stroke:#263238;stroke-width:1.10311px;stroke-linecap:round;stroke-linejoin:round"
       id="path189" />
    <path
       d="m 262.24,356 c 0,0 4.86,-16 9.65,-24.19"
       style="fill:none;stroke:#263238;stroke-width:1.10311px;stroke-linecap:round;stroke-linejoin:round"
       id="path191" />
    <path
       d="m 283.25,285.55 c 0,0 -26.81,10.06 -29.44,13 -2.63,2.94 -12.62,59.19 -12.89,65.63 -0.23,5.76 20.65,18.69 31,24.14"
       style="fill:none;stroke:#263238;stroke-width:1.10311px;stroke-linecap:round;stroke-linejoin:round"
       id="path193" />
    <path
       d="m 303.3,304.56 a 1.77,1.77 0 1 1 -1.77,-1.77 1.76,1.76 0 0 1 1.77,1.77 z"
       style="fill:#263238"
       id="path195" />
    <path
       d="m 334.32,398.78 h -61 a 1.43,1.43 0 0 1 -1.43,-1.43 v 0 a 1.43,1.43 0 0 1 1.43,-1.43 h 61 a 1.43,1.43 0 0 1 1.43,1.43 v 0 a 1.43,1.43 0 0 1 -1.43,1.43 z"
       style="fill:#263238"
       id="path197" />
    <path
       d="m 336.46,394 8.17,-38.4 a 4.08,4.08 0 0 0 -4,-4.93 h -71.3 a 4.08,4.08 0 0 0 -4,4.88 l 7.33,37.12 a 4.08,4.08 0 0 0 3.91,3.29 l 55.79,1.28 a 4.1,4.1 0 0 0 4.1,-3.24 z"
       style="fill:#ffffff;stroke:#263238;stroke-width:1.10311px;stroke-linecap:round;stroke-linejoin:round"
       id="path199" />
    <path
       d="m 310.44,372.83 a 5.69,5.69 0 1 1 -5.69,-5.7 5.69,5.69 0 0 1 5.69,5.7 z"
       style="fill:#263238"
       id="path201" />
    <line
       x1="321.63"
       y1="354.34"
       x2="330.10001"
       y2="354.34"
       style="fill:none;stroke:#263238;stroke-width:1.10311px;stroke-linecap:round;stroke-linejoin:round"
       id="line203" />
    <line
       x1="281.17999"
       y1="354.34"
       x2="313.32999"
       y2="354.34"
       style="fill:none;stroke:#263238;stroke-width:1.10311px;stroke-linecap:round;stroke-linejoin:round"
       id="line205" />
    <path
       d="m 336.6,434.77 -6.5,17.06 c 0,0 -16.58,-4.18 -37.81,-8.53 -22.21,-4.55 -45.4,-10.44 -57.43,-31.55 -1.46,-2.57 -2.44,-5.61 -1.75,-8.49 1.73,-7.29 11.22,-9.27 17.47,-10 a 113.92,113.92 0 0 1 11.83,-0.66 c 2,0 8.65,-1.09 10.26,0.1 a 47.14,47.14 0 0 0 7.71,4.57 c 3.55,1.51 55.37,-1.35 55.37,-1.35 a 18.59,18.59 0 0 0 1.63,-6.23 c 8.15,-4.14 27,-7.64 35,-6.09 12.53,2.43 19.84,9.74 18.45,17.4 -1.39,7.66 -29.07,28.2 -54.23,33.77 z"
       style="fill:#263238"
       id="path207" />
    <path
       d="m 336.6,434.77 c 0,0 -15.77,-4.18 -28.65,-12.88 -12.88,-8.7 -22.94,-18.8 -40.89,-16.71"
       style="fill:none;stroke:#ffffff;stroke-width:1.10311px;stroke-linecap:round;stroke-linejoin:round"
       id="path209" />
    <path
       d="m 305,419.84 c 8.14,-2.34 14.11,-7.61 20.64,-12.66 a 139.62,139.62 0 0 1 22.09,-14.52"
       style="fill:none;stroke:#ffffff;stroke-width:1.10311px;stroke-linecap:round;stroke-linejoin:round"
       id="path211" />
    <line
       x1="302.13"
       y1="252.05"
       x2="304.51999"
       y2="252.05"
       style="fill:none;stroke:#263238;stroke-width:1.10311px;stroke-linecap:round;stroke-linejoin:round"
       id="line213" />
  </g>
</svg>
